HIERARCHY
ROOT Hips
{
	OFFSET -44.275551 -9.155879 87.567955
	CHANNELS 6 Xposition Yposition Zposition Zrotation Yrotation Xrotation
	JOINT Spine
	{
		OFFSET 0.000000 2.080107 8.814247
		CHANNELS 6 Xposition Yposition Zposition Zrotation Yrotation Xrotation
		JOINT Spine1
		{
			OFFSET 0.000000 0.000001 8.844139
			CHANNELS 6 Xposition Yposition Zposition Zrotation Yrotation Xrotation
			JOINT Spine2
			{
				OFFSET 0.000000 0.000001 11.682266
				CHANNELS 6 Xposition Yposition Zposition Zrotation Yrotation Xrotation
				JOINT Spine3
				{
					OFFSET 0.000000 0.000000 11.746696
					CHANNELS 6 Xposition Yposition Zposition Zrotation Yrotation Xrotation
					JOINT Neck
					{
						OFFSET 0.000000 0.000001 17.658264
						CHANNELS 6 Xposition Yposition Zposition Zrotation Yrotation Xrotation
						JOINT Neck1
						{
							OFFSET 0.000000 0.000000 5.101517
							CHANNELS 6 Xposition Yposition Zposition Zrotation Yrotation Xrotation
							JOINT Head
							{
								OFFSET 0.000000 0.000000 5.101517
								CHANNELS 6 Xposition Yposition Zposition Zrotation Yrotation Xrotation
								JOINT HeadEnd
								{
									OFFSET 0.000000 0.000001 11.655090
									CHANNELS 6 Xposition Yposition Zposition Zrotation Yrotation Xrotation
									End Site
									{
										OFFSET 0.000000 0.000000 0.100006
									}
								}
							}
						}
					}
					JOINT RightShoulder
					{
						OFFSET -2.625389 0.000001 11.175217
						CHANNELS 6 Xposition Yposition Zposition Zrotation Yrotation Xrotation
						JOINT RightArm
						{
							OFFSET 0.000000 0.000001 10.434708
							CHANNELS 6 Xposition Yposition Zposition Zrotation Yrotation Xrotation
							JOINT RightForeArm
							{
								OFFSET 0.000000 0.000002 29.628418
								CHANNELS 6 Xposition Yposition Zposition Zrotation Yrotation Xrotation
								JOINT RightHand
								{
									OFFSET 0.000000 0.000002 22.857605
									CHANNELS 6 Xposition Yposition Zposition Zrotation Yrotation Xrotation
									JOINT RightHandThumb1
									{
										OFFSET -2.867325 -2.944291 3.959564
										CHANNELS 6 Xposition Yposition Zposition Zrotation Yrotation Xrotation
										JOINT RightHandThumb2
										{
											OFFSET 0.000000 0.000001 3.350403
											CHANNELS 6 Xposition Yposition Zposition Zrotation Yrotation Xrotation
											JOINT RightHandThumb3
											{
												OFFSET 0.000000 0.000000 3.756516
												CHANNELS 6 Xposition Yposition Zposition Zrotation Yrotation Xrotation
												JOINT RightHandThumb4
												{
													OFFSET 0.000000 0.000000 3.147339
													CHANNELS 6 Xposition Yposition Zposition Zrotation Yrotation Xrotation
													End Site
													{
														OFFSET 0.000000 0.000000 0.100006
													}
												}
											}
										}
									}
									JOINT RightHandIndex1
									{
										OFFSET -0.086754 -2.345279 10.030899
										CHANNELS 6 Xposition Yposition Zposition Zrotation Yrotation Xrotation
										JOINT RightHandIndex2
										{
											OFFSET 0.000000 0.000000 4.061096
											CHANNELS 6 Xposition Yposition Zposition Zrotation Yrotation Xrotation
											JOINT RightHandIndex3
											{
												OFFSET 0.000000 0.000000 3.248871
												CHANNELS 6 Xposition Yposition Zposition Zrotation Yrotation Xrotation
												JOINT RightHandIndex4
												{
													OFFSET 0.000000 0.000001 2.639709
													CHANNELS 6 Xposition Yposition Zposition Zrotation Yrotation Xrotation
													End Site
													{
														OFFSET 0.000000 0.000000 0.100006
													}
												}
											}
										}
									}
									JOINT RightHandMiddle1
									{
										OFFSET 0.104103 -0.006767 9.502945
										CHANNELS 6 Xposition Yposition Zposition Zrotation Yrotation Xrotation
										JOINT RightHandMiddle2
										{
											OFFSET 0.000000 0.000000 4.568726
											CHANNELS 6 Xposition Yposition Zposition Zrotation Yrotation Xrotation
											JOINT RightHandMiddle3
											{
												OFFSET 0.000000 0.000000 3.654984
												CHANNELS 6 Xposition Yposition Zposition Zrotation Yrotation Xrotation
												JOINT RightHandMiddle4
												{
													OFFSET 0.000000 0.000000 2.741241
													CHANNELS 6 Xposition Yposition Zposition Zrotation Yrotation Xrotation
													End Site
													{
														OFFSET 0.000000 0.000000 0.100006
													}
												}
											}
										}
									}
									JOINT RightHandRing1
									{
										OFFSET 0.086754 2.267443 8.921707
										CHANNELS 6 Xposition Yposition Zposition Zrotation Yrotation Xrotation
										JOINT RightHandRing2
										{
											OFFSET 0.000000 0.000000 4.061096
											CHANNELS 6 Xposition Yposition Zposition Zrotation Yrotation Xrotation
											JOINT RightHandRing3
											{
												OFFSET 0.000000 0.000000 3.654984
												CHANNELS 6 Xposition Yposition Zposition Zrotation Yrotation Xrotation
												JOINT RightHandRing4
												{
													OFFSET 0.000000 0.000000 2.741241
													CHANNELS 6 Xposition Yposition Zposition Zrotation Yrotation Xrotation
													End Site
													{
														OFFSET 0.000000 0.000000 0.100006
													}
												}
											}
										}
									}
									JOINT RightHandPinky1
									{
										OFFSET -0.173504 4.467199 7.976990
										CHANNELS 6 Xposition Yposition Zposition Zrotation Yrotation Xrotation
										JOINT RightHandPinky2
										{
											OFFSET 0.000000 0.000000 3.350403
											CHANNELS 6 Xposition Yposition Zposition Zrotation Yrotation Xrotation
											JOINT RightHandPinky3
											{
												OFFSET 0.000000 0.000000 2.842758
												CHANNELS 6 Xposition Yposition Zposition Zrotation Yrotation Xrotation
												JOINT RightHandPinky4
												{
													OFFSET 0.000000 0.000000 2.639709
													CHANNELS 6 Xposition Yposition Zposition Zrotation Yrotation Xrotation
													End Site
													{
														OFFSET 0.000000 0.000000 0.100006
													}
												}
											}
										}
									}
									JOINT RightForeArmEnd
									{
										OFFSET 0.000000 0.000000 0.000000
										CHANNELS 6 Xposition Yposition Zposition Zrotation Yrotation Xrotation
										End Site
										{
											OFFSET 0.000000 0.000000 0.100006
										}
									}
								}
								JOINT RightArmEnd
								{
									OFFSET 0.000000 0.000000 0.000000
									CHANNELS 6 Xposition Yposition Zposition Zrotation Yrotation Xrotation
									End Site
									{
										OFFSET 0.000000 0.000000 0.100006
									}
								}
							}
						}
					}
					JOINT LeftShoulder
					{
						OFFSET 2.625389 0.000001 11.175217
						CHANNELS 6 Xposition Yposition Zposition Zrotation Yrotation Xrotation
						JOINT LeftArm
						{
							OFFSET 0.000000 0.000001 10.813629
							CHANNELS 6 Xposition Yposition Zposition Zrotation Yrotation Xrotation
							JOINT LeftForeArm
							{
								OFFSET 0.000000 0.000002 28.724777
								CHANNELS 6 Xposition Yposition Zposition Zrotation Yrotation Xrotation
								JOINT LeftHand
								{
									OFFSET 0.644382 0.328873 25.716171
									CHANNELS 6 Xposition Yposition Zposition Zrotation Yrotation Xrotation
									JOINT LeftHandThumb1
									{
										OFFSET 2.867321 -2.944290 3.959564
										CHANNELS 6 Xposition Yposition Zposition Zrotation Yrotation Xrotation
										JOINT LeftHandThumb2
										{
											OFFSET 0.000000 0.000000 3.350403
											CHANNELS 6 Xposition Yposition Zposition Zrotation Yrotation Xrotation
											JOINT LeftHandThumb3
											{
												OFFSET 0.000000 0.000000 3.756516
												CHANNELS 6 Xposition Yposition Zposition Zrotation Yrotation Xrotation
												JOINT LeftHandThumb4
												{
													OFFSET 0.000000 0.000000 3.100006
													CHANNELS 6 Xposition Yposition Zposition Zrotation Yrotation Xrotation
													End Site
													{
														OFFSET 0.000000 0.000000 0.100006
													}
												}
											}
										}
									}
									JOINT LeftHandIndex1
									{
										OFFSET 0.086754 -2.345279 10.030899
										CHANNELS 6 Xposition Yposition Zposition Zrotation Yrotation Xrotation
										JOINT LeftHandIndex2
										{
											OFFSET 0.000000 0.000000 4.061096
											CHANNELS 6 Xposition Yposition Zposition Zrotation Yrotation Xrotation
											JOINT LeftHandIndex3
											{
												OFFSET 0.000000 0.000001 3.248871
												CHANNELS 6 Xposition Yposition Zposition Zrotation Yrotation Xrotation
												JOINT LeftHandIndex4
												{
													OFFSET 0.000000 0.000000 2.639709
													CHANNELS 6 Xposition Yposition Zposition Zrotation Yrotation Xrotation
													End Site
													{
														OFFSET 0.000000 0.000000 0.100006
													}
												}
											}
										}
									}
									JOINT LeftHandMiddle1
									{
										OFFSET -0.104103 -0.006767 9.502945
										CHANNELS 6 Xposition Yposition Zposition Zrotation Yrotation Xrotation
										JOINT LeftHandMiddle2
										{
											OFFSET 0.000000 0.000000 4.568726
											CHANNELS 6 Xposition Yposition Zposition Zrotation Yrotation Xrotation
											JOINT LeftHandMiddle3
											{
												OFFSET 0.000000 0.000000 3.654984
												CHANNELS 6 Xposition Yposition Zposition Zrotation Yrotation Xrotation
												JOINT LeftHandMiddle4
												{
													OFFSET 0.000000 0.000000 2.741241
													CHANNELS 6 Xposition Yposition Zposition Zrotation Yrotation Xrotation
													End Site
													{
														OFFSET 0.000000 0.000000 0.100006
													}
												}
											}
										}
									}
									JOINT LeftHandRing1
									{
										OFFSET -0.086754 2.267443 8.921707
										CHANNELS 6 Xposition Yposition Zposition Zrotation Yrotation Xrotation
										JOINT LeftHandRing2
										{
											OFFSET 0.000000 0.000000 4.061096
											CHANNELS 6 Xposition Yposition Zposition Zrotation Yrotation Xrotation
											JOINT LeftHandRing3
											{
												OFFSET 0.000000 0.000000 3.654984
												CHANNELS 6 Xposition Yposition Zposition Zrotation Yrotation Xrotation
												JOINT LeftHandRing4
												{
													OFFSET 0.000000 0.000000 2.741241
													CHANNELS 6 Xposition Yposition Zposition Zrotation Yrotation Xrotation
													End Site
													{
														OFFSET 0.000000 0.000000 0.100006
													}
												}
											}
										}
									}
									JOINT LeftHandPinky1
									{
										OFFSET 0.173504 4.467199 7.976990
										CHANNELS 6 Xposition Yposition Zposition Zrotation Yrotation Xrotation
										JOINT LeftHandPinky2
										{
											OFFSET 0.000000 0.000000 3.350403
											CHANNELS 6 Xposition Yposition Zposition Zrotation Yrotation Xrotation
											JOINT LeftHandPinky3
											{
												OFFSET 0.000000 0.000000 2.842758
												CHANNELS 6 Xposition Yposition Zposition Zrotation Yrotation Xrotation
												JOINT LeftHandPinky4
												{
													OFFSET 0.000000 0.000000 2.639709
													CHANNELS 6 Xposition Yposition Zposition Zrotation Yrotation Xrotation
													End Site
													{
														OFFSET 0.000000 0.000000 0.100006
													}
												}
											}
										}
									}
									JOINT LeftForeArmEnd
									{
										OFFSET 0.000000 0.000000 0.000000
										CHANNELS 6 Xposition Yposition Zposition Zrotation Yrotation Xrotation
										End Site
										{
											OFFSET 0.000000 0.000000 0.100006
										}
									}
								}
								JOINT LeftArmEnd
								{
									OFFSET 0.000000 0.000000 0.000000
									CHANNELS 6 Xposition Yposition Zposition Zrotation Yrotation Xrotation
									End Site
									{
										OFFSET 0.000000 0.000000 0.100006
									}
								}
							}
						}
					}
				}
			}
		}
	}
	JOINT RightUpLeg
	{
		OFFSET -11.289944 0.000000 0.000000
		CHANNELS 6 Xposition Yposition Zposition Zrotation Yrotation Xrotation
		JOINT RightLeg
		{
			OFFSET 0.000000 -0.000003 -38.200325
			CHANNELS 6 Xposition Yposition Zposition Zrotation Yrotation Xrotation
			JOINT RightFoot
			{
				OFFSET 0.000000 -0.000003 -39.900856
				CHANNELS 6 Xposition Yposition Zposition Zrotation Yrotation Xrotation
				JOINT RightToeBase
				{
					OFFSET 0.000000 -15.261642 0.000001
					CHANNELS 6 Xposition Yposition Zposition Zrotation Yrotation Xrotation
					JOINT RightToeBaseEnd
					{
						OFFSET 0.000000 -7.370708 0.000001
						CHANNELS 6 Xposition Yposition Zposition Zrotation Yrotation Xrotation
						End Site
						{
							OFFSET 0.000000 0.000000 0.100000
						}
					}
				}
				JOINT RightLegEnd
				{
					OFFSET 0.000000 0.000000 0.000000
					CHANNELS 6 Xposition Yposition Zposition Zrotation Yrotation Xrotation
					End Site
					{
						OFFSET 0.000000 0.000000 0.100000
					}
				}
			}
			JOINT RightUpLegEnd
			{
				OFFSET 0.000000 0.000000 0.000000
				CHANNELS 6 Xposition Yposition Zposition Zrotation Yrotation Xrotation
				End Site
				{
					OFFSET 0.000000 0.000000 0.099998
				}
			}
		}
	}
	JOINT LeftUpLeg
	{
		OFFSET 11.315662 0.000000 0.000000
		CHANNELS 6 Xposition Yposition Zposition Zrotation Yrotation Xrotation
		JOINT LeftLeg
		{
			OFFSET 0.000000 -0.000003 -38.200325
			CHANNELS 6 Xposition Yposition Zposition Zrotation Yrotation Xrotation
			JOINT LeftFoot
			{
				OFFSET 0.000000 -0.000003 -39.900856
				CHANNELS 6 Xposition Yposition Zposition Zrotation Yrotation Xrotation
				JOINT LeftToeBase
				{
					OFFSET 0.000000 -15.261642 0.000001
					CHANNELS 6 Xposition Yposition Zposition Zrotation Yrotation Xrotation
					JOINT LeftToeBaseEnd
					{
						OFFSET 0.000000 -7.539997 0.000001
						CHANNELS 6 Xposition Yposition Zposition Zrotation Yrotation Xrotation
						End Site
						{
							OFFSET 0.000000 0.000000 0.100000
						}
					}
				}
				JOINT LeftLegEnd
				{
					OFFSET 0.000000 0.000000 0.000000
					CHANNELS 6 Xposition Yposition Zposition Zrotation Yrotation Xrotation
					End Site
					{
						OFFSET 0.000000 0.000000 0.100000
					}
				}
			}
			JOINT LeftUpLegEnd
			{
				OFFSET 0.000000 0.000000 0.000000
				CHANNELS 6 Xposition Yposition Zposition Zrotation Yrotation Xrotation
				End Site
				{
					OFFSET 0.000000 0.000000 0.099998
				}
			}
		}
	}
}
MOTION
Frames: 2
Frame Time: 0.016667
-8.053596 -26.752556 84.361336 -22.368589 10.336861 -13.270451 0.000003 2.080111 8.814253 -0.887971 -3.587774 4.120140 -0.000001 0.000003 8.844147 0.754222 1.592886 3.262589 0.000001 0.000002 11.682261 -7.261855 -8.142350 7.802245 0.000001 -0.000000 11.746690 -1.764635 -3.076597 3.753488 -0.000001 0.000008 17.658253 -1.072709 -11.106727 25.902210 0.000000 0.000003 5.101498 2.706926 1.336913 0.733742 0.000001 0.000002 5.101490 3.039349 -0.212411 -23.321300 0.000008 -0.000002 11.655076 -0.000003 0.000001 -0.000001 -2.625386 0.000000 11.175205 2.128927 -97.033472 -0.317598 -0.000003 0.000003 10.434709 -35.387832 -52.589123 22.742047 -0.000005 0.000003 29.628412 24.640449 -8.915792 32.135992 0.000006 0.000001 22.857616 20.440903 0.081125 -15.216534 -2.867326 -2.944302 3.959567 31.770775 -16.230898 53.110011 -0.000003 -0.000009 3.350394 -10.395031 7.419807 -19.035536 -0.000003 0.000006 3.756510 -6.951650 5.526310 -13.058226 -0.000002 0.000006 3.147323 -0.000000 -0.000000 0.000001 -0.086755 -2.345284 10.030879 -10.010210 -7.921934 1.411151 0.000007 -0.000005 4.061104 0.462366 -5.662155 0.798161 -0.000003 -0.000007 3.248841 -0.039327 -5.661619 0.798358 -0.000001 -0.000000 2.639694 0.000002 0.000000 -0.000000 0.104095 -0.006772 9.502943 -5.113526 -8.919803 -0.988893 -0.000002 0.000000 4.568734 0.480234 -6.277514 0.329474 -0.000002 -0.000005 3.654966 -0.019520 -6.277491 0.329221 -0.000001 0.000000 2.741226 0.000002 -0.000001 0.000000 0.086750 2.267442 8.921707 2.634714 -10.724042 -2.716304 0.000005 -0.000001 4.061091 -0.965580 -7.737152 -0.476104 -0.000002 -0.000003 3.654950 0.033114 -7.737316 -0.476073 0.000001 -0.000003 2.741241 -0.000001 -0.000001 -0.000000 -0.173506 4.467195 7.976972 11.003032 -11.107716 -6.786891 -0.000000 -0.000004 3.350415 -1.874920 -8.614667 -1.675383 -0.000009 0.000001 2.842729 0.128250 -8.614676 -1.684124 -0.000003 -0.000000 2.639678 -0.000002 -0.000001 0.000001 -0.000000 -0.000003 -0.000015 -0.000002 0.000001 0.000002 0.000005 0.000002 0.000016 0.000002 0.000001 -0.000001 2.625392 -0.000001 11.175220 -6.516331 96.336915 -1.526556 -0.000004 0.000006 10.813631 39.370652 37.585609 45.755622 0.000001 -0.000005 28.724764 -29.955991 4.191463 61.032371 0.644377 0.328873 25.716166 41.195446 15.289629 -22.625026 2.867307 -2.944318 3.959568 -31.612168 21.998055 44.665903 -0.000009 -0.000005 3.350437 23.237598 -10.940841 -40.050638 -0.000016 0.000005 3.756541 15.331712 -9.378588 -27.282158 -0.000002 -0.000002 3.100020 -0.000001 -0.000001 0.000001 0.086768 -2.345276 10.030890 0.203995 54.225312 -14.224734 -0.000002 0.000003 4.061090 -1.856067 39.267717 -6.597822 0.000012 0.000008 3.248892 -2.356036 39.267772 -6.597802 -0.000002 0.000003 2.639755 0.000000 -0.000000 0.000001 -0.104117 -0.006765 9.502929 7.741680 52.862437 -4.987144 -0.000022 0.000002 4.568738 -0.302410 37.890157 -2.337379 -0.000000 -0.000004 3.654962 -0.802430 37.890150 -2.337390 -0.000003 0.000003 2.741241 0.000001 -0.000000 0.000001 -0.086742 2.267443 8.921747 18.992774 49.360589 9.744330 -0.000013 -0.000001 4.061131 -0.193590 35.609949 2.510573 -0.000026 0.000001 3.654981 0.806407 35.609891 2.510624 -0.000004 0.000005 2.741242 0.000000 0.000001 -0.000000 0.173497 4.467200 7.976969 27.361927 41.547173 19.697583 0.000011 -0.000009 3.350399 -0.106166 31.230514 6.768744 0.000017 -0.000004 2.842754 1.893848 31.230517 6.768757 -0.000002 -0.000003 2.639724 -0.000001 -0.000001 -0.000001 -0.000005 -0.000000 0.000015 -0.000000 -0.000001 -0.000001 -0.000010 0.000001 0.000001 -0.000002 0.000001 0.000001 -11.289948 0.000000 0.000010 1.437176 -18.376945 9.668317 -0.000003 -0.000002 -38.200314 -0.113712 0.033187 16.490539 -0.000002 -0.000003 -39.900860 -14.210378 11.162633 11.637183 0.000000 -15.261648 0.000001 -0.395923 -1.227331 -27.745145 -0.000000 -7.370710 0.000000 0.000000 0.000000 -0.000000 -0.000004 -0.000001 0.000001 -0.000003 0.000000 0.000002 -0.000000 -0.000001 -0.000003 0.000000 0.000001 -0.000000 11.315666 0.000002 0.000009 -34.172358 -20.761186 -7.242652 0.000011 -0.000007 -38.200306 0.069760 -0.145394 64.361098 -0.000003 0.000002 -39.900860 -10.529283 -2.115757 42.514437 -0.000003 -15.261653 0.000011 2.037598 6.296819 -64.991921 -0.000001 -7.539993 0.000002 0.000003 0.000001 -0.000000 -0.000004 -0.000001 -0.000000 -0.000001 0.000001 0.000000 0.000001 -0.000003 0.000000 0.000000 0.000000 -0.000001 
-8.048576 -26.851406 84.398239 -21.766725 10.194154 -13.263333 0.000001 2.080109 8.814238 -0.920388 -3.671169 4.178757 0.000001 0.000005 8.844132 0.689704 1.358448 3.359694 -0.000001 0.000000 11.682261 -6.851539 -7.677688 7.841801 -0.000003 -0.000003 11.746679 -1.638938 -2.845327 3.653999 0.000003 0.000007 17.658255 -1.409238 -11.132279 25.173215 -0.000001 -0.000003 5.101516 2.358968 1.456543 0.427541 -0.000002 0.000010 5.101505 3.078819 -0.281984 -23.355388 0.000009 0.000001 11.655077 -0.000001 0.000003 -0.000000 -2.625381 0.000002 11.175215 2.314944 -97.034756 -0.317655 0.000005 0.000004 10.434710 -35.791093 -52.796997 23.013757 -0.000002 0.000004 29.628405 24.566539 -8.860407 32.205322 -0.000003 -0.000003 22.857592 20.608112 0.044142 -15.206462 -2.867333 -2.944296 3.959542 31.770744 -16.230971 53.109816 -0.000005 -0.000010 3.350382 -10.394995 7.419828 -19.035353 0.000004 -0.000003 3.756539 -6.951684 5.526358 -13.058239 0.000002 -0.000002 3.147323 0.000000 -0.000000 0.000000 -0.086755 -2.345282 10.030869 -10.012035 -7.945720 1.401349 -0.000010 0.000000 4.061071 0.461795 -5.677155 0.803017 0.000000 -0.000005 3.248868 -0.039682 -5.677288 0.803064 0.000006 -0.000002 2.639695 0.000002 0.000001 -0.000000 0.104099 -0.006771 9.502927 -5.113996 -8.934230 -0.994407 -0.000005 0.000002 4.568688 0.480186 -6.287485 0.331780 -0.000012 -0.000005 3.654983 -0.019666 -6.287488 0.332823 0.000000 -0.000002 2.741242 0.000001 0.000001 -0.000001 0.086747 2.267438 8.921690 2.633779 -10.719830 -2.720025 -0.000007 -0.000001 4.061083 -0.965320 -7.735991 -0.477889 0.000001 -0.000001 3.654962 0.033264 -7.734328 -0.478308 0.000001 -0.000001 2.741227 0.000000 0.000001 -0.000000 -0.173506 4.467193 7.976957 11.008306 -11.082081 -6.787830 0.000001 -0.000001 3.350411 -1.874484 -8.597234 -1.676548 -0.000007 -0.000007 2.842761 0.128778 -8.597490 -1.683406 0.000002 0.000008 2.639708 0.000000 -0.000002 0.000001 -0.000005 -0.000003 -0.000015 -0.000002 0.000001 0.000002 -0.000000 -0.000000 0.000001 -0.000001 0.000001 -0.000001 2.625385 0.000001 11.175214 -6.402035 96.503449 -1.483836 -0.000006 -0.000005 10.813625 41.503511 38.066461 46.007540 -0.000005 -0.000004 28.724771 -29.172394 4.055815 59.307216 0.644381 0.328865 25.716169 39.601744 14.424719 -22.689875 2.867312 -2.944316 3.959565 -31.593378 21.810360 44.926590 -0.000019 0.000013 3.350443 22.818791 -10.902817 -39.381488 -0.000015 0.000015 3.756534 15.055219 -9.290223 -26.827737 -0.000006 0.000002 3.100005 -0.000000 -0.000001 0.000002 0.086758 -2.345274 10.030899 0.136930 53.892894 -14.149730 -0.000000 0.000002 4.061115 -1.820315 39.027192 -6.541229 0.000008 -0.000001 3.248882 -2.320329 39.027209 -6.541231 0.000010 -0.000002 2.639740 -0.000000 -0.000001 -0.000001 -0.104101 -0.006764 9.502922 7.455391 52.036226 -5.297877 0.000006 -0.000001 4.568727 -0.272600 37.304752 -2.288503 -0.000004 -0.000002 3.654993 -0.772592 37.304765 -2.288483 -0.000004 0.000004 2.741242 -0.000000 0.000000 -0.000001 -0.086753 2.267444 8.921744 17.959892 47.551142 8.258271 -0.000011 0.000002 4.061122 -0.265741 34.225094 2.384516 -0.000014 0.000000 3.655004 0.734247 34.225193 2.384511 0.000000 -0.000001 2.741241 0.000001 -0.000001 0.000000 0.173512 4.467199 7.976972 25.852338 39.193651 17.018869 0.000007 -0.000003 3.350439 -0.370449 29.228186 6.243881 0.000002 -0.000007 2.842770 1.629573 29.228200 6.243912 -0.000002 0.000001 2.639709 0.000001 -0.000001 0.000001 -0.000005 0.000000 0.000030 0.000000 -0.000001 0.000000 0.000000 -0.000001 0.000001 -0.000001 0.000001 -0.000003 -11.289949 -0.000002 0.000018 1.122541 -18.168295 9.986768 -0.000001 -0.000003 -38.200314 -0.108792 0.031668 16.228135 -0.000003 0.000000 -39.900856 -14.471322 11.107528 11.623330 0.000001 -15.261649 0.000003 -0.420076 -1.203027 -27.763006 0.000001 -7.370708 0.000002 -0.000001 -0.000000 0.000000 0.000000 0.000000 0.000002 -0.000003 0.000000 0.000001 0.000000 0.000001 0.000005 0.000001 0.000001 -0.000001 11.315662 0.000003 -0.000003 -34.118742 -20.621818 -7.396352 0.000004 -0.000002 -38.200317 0.065289 -0.134942 64.149396 -0.000004 0.000004 -39.900848 -10.665743 -2.393277 42.507484 0.000001 -15.261651 0.000009 1.987947 6.345755 -65.049076 -0.000001 -7.540002 0.000001 -0.000002 -0.000000 -0.000001 0.000000 -0.000001 0.000001 -0.000001 0.000002 0.000001 -0.000004 0.000000 0.000006 -0.000002 -0.000002 0.000002 
